<?xml version="1.0" encoding="UTF-8" standalone="no"?>
<!-- Created with Inkscape (http://www.inkscape.org/) -->

<svg
   width="108.47833mm"
   height="29.03845mm"
   viewBox="0 0 108.47833 29.03845"
   version="1.1"
   id="svg25568"
   inkscape:version="1.2.1 (9c6d41e410, 2022-07-14)"
   sodipodi:docname="dqrobotics_logo_header.svg"
   xmlns:inkscape="http://www.inkscape.org/namespaces/inkscape"
   xmlns:sodipodi="http://sodipodi.sourceforge.net/DTD/sodipodi-0.dtd"
   xmlns="http://www.w3.org/2000/svg"
   xmlns:svg="http://www.w3.org/2000/svg">
  <sodipodi:namedview
     id="namedview25570"
     pagecolor="#ffffff"
     bordercolor="#000000"
     borderopacity="0.25"
     inkscape:showpageshadow="2"
     inkscape:pageopacity="0.0"
     inkscape:pagecheckerboard="0"
     inkscape:deskcolor="#d1d1d1"
     inkscape:document-units="mm"
     showgrid="false"
     inkscape:zoom="0.914906"
     inkscape:cx="471.63315"
     inkscape:cy="508.24893"
     inkscape:window-width="3840"
     inkscape:window-height="2036"
     inkscape:window-x="2148"
     inkscape:window-y="777"
     inkscape:window-maximized="1"
     inkscape:current-layer="layer1" />
  <defs
     id="defs25565">
    <clipPath
       clipPathUnits="userSpaceOnUse"
       id="clipPath1293">
      <rect
         style="opacity:1;fill:#ffffff;fill-opacity:1;stroke:none;stroke-width:2;stroke-miterlimit:4;stroke-dasharray:none;stroke-dashoffset:0;stroke-opacity:0.341176"
         id="rect1295"
         width="29.266012"
         height="39.288624"
         x="728.30945"
         y="402.70511" />
    </clipPath>
  </defs>
  <g
     inkscape:label="Layer 1"
     inkscape:groupmode="layer"
     id="layer1"
     transform="translate(39.201194,-13.821573)">
    <g
       id="g687"
       transform="matrix(0.26458333,0,0,0.26458333,-98.159148,61.422961)"
       style="fill:#ffffff;fill-opacity:1;stroke:#fff8f8;stroke-width:2.8;stroke-dasharray:none;stroke-opacity:1">
      <path
         style="fill:#ffffff;fill-opacity:1;stroke:#fff8f8;stroke-width:2.8;stroke-dasharray:none;stroke-opacity:1"
         d="m 515.06897,-144.14139 c 0.44305,0.44306 -0.34445,0.75819 -1.75,0.7003 -3.07419,-0.64915 0.48911,-1.12819 1.75,-0.7003 z"
         id="path697"
         sodipodi:nodetypes="ccc" />
      <path
         style="fill:#ffffff;fill-opacity:1;stroke:#fff8f8;stroke-width:2.8;stroke-dasharray:none;stroke-opacity:1"
         d="m 518.40109,-103.64276 c -3.95039,-1.90384 -4.84113,-5.90368 -3.87665,-17.40799 0.4345,-5.18275 0.43446,-12.01711 -8e-5,-15.18746 l -0.79008,-5.76429 h -6.70766 c -3.68921,0 -6.32118,-0.38647 -5.84884,-0.85882 1.34252,-1.34252 31.65119,-1.65929 30.8248,-0.32216 -0.40144,0.64954 -3.6109,1.18098 -7.13214,1.18098 h -6.40226 l -0.8408,7 c -0.46244,3.85 -0.84601,11.05 -0.85238,16 -0.012,9.54745 2.52705,14.30888 7.65508,14.35375 1.99406,0.0175 2.04253,0.20835 0.33333,1.31292 -2.39905,1.55038 -2.52064,1.54452 -6.36232,-0.30693 z m 30.0948,-1.02641 c -1.6452,-6.04421 -1.61876,-38.64705 0.0327,-40.29849 0.83805,-0.83805 1.79292,-1.25454 2.12192,-0.92554 0.32901,0.32901 0.18296,10.48901 -0.32455,22.57778 -0.50749,12.08877 -1.33101,20.47959 -1.83004,18.64625 z m 66.48975,1.77778 c -1.87528,-1.87527 -0.73602,-2.62683 3.12332,-2.0604 4.34314,0.63744 7.98778,-1.51291 7.98778,-4.71282 0,-1.10124 -2.1,-6.6533 -4.66666,-12.33789 -5.74543,-12.72485 -5.82246,-15.92418 -0.52855,-21.95361 3.92232,-4.46728 10.52855,-6.58792 10.52855,-3.37973 0,0.73334 -1.45715,1.33334 -3.2381,1.33334 -3.56128,0 -6.8174,2.64054 -8.05172,6.52953 -0.44562,1.40405 0.98732,7.00762 3.24599,12.69349 4.50884,11.35032 5.05525,17.40628 1.96823,21.81364 -1.999,2.85396 -8.32394,4.11936 -10.36884,2.07445 z m -283.61439,-1.11111 c -0.0323,-0.36667 -0.0979,-9.51667 -0.14569,-20.33333 l -0.0869,-19.66667 3.79089,-1.88889 c 4.72359,-2.35363 10.37664,-2.42705 13.09613,-0.17007 1.28561,1.06696 2.07104,3.89567 2.07104,7.45878 0,5.75531 -1.34566,7.60918 -8.69333,11.9765 -2.02367,1.20283 -1.11751,2.53292 7.18889,10.55208 5.22744,5.04667 9.50444,9.67733 9.50444,10.29035 0,2.93673 -3.71603,0.30579 -11.60845,-8.21875 -4.75268,-5.13333 -9.48506,-9.33333 -10.51639,-9.33333 -1.44464,0 -1.87516,2.2959 -1.87516,10 0,5.77777 -0.56296,10 -1.33333,10 -0.73333,0 -1.3598,-0.3 -1.39216,-0.66667 z m 11.91782,-25.86828 c 4.65539,-4.34879 5.55577,-10.52648 2.04577,-14.03648 -5.5531,-5.55311 -11.2381,-0.0553 -11.2381,10.8681 0,6.01682 0.36605,7.03666 2.52566,7.03666 1.38912,0 4.38912,-1.74073 6.66667,-3.86828 z m 76.80694,24.20161 c 0.52319,-1.28333 1.26572,-8.96213 1.65008,-17.064 0.59613,-12.56594 0.37344,-15.05607 -1.51547,-16.94497 -2.0635,-2.06351 -1.96186,-2.3451 1.49259,-4.13508 l 3.70687,-1.92078 -0.44711,8.53241 c -0.40076,7.64808 -0.18477,8.53242 2.08388,8.53242 1.39204,0 4.14324,-1.68283 6.11377,-3.73962 5.57687,-5.821 4.55714,-11.32118 -2.53085,-13.65086 -3.52067,-1.15717 -3.38492,-1.21745 1.4426,-0.64055 5.27827,0.63075 8.67104,3.41994 8.67104,7.12844 0,1.05658 -2.21076,4.00606 -4.9128,6.55441 -4.58269,4.32205 -4.74252,4.72865 -2.37859,6.05157 8.01387,4.48479 10.88954,11.83369 6.26742,16.01665 -3.35507,3.03629 -13.74051,7.54943 -17.45202,7.58401 -2.4711,0.023 -2.93938,-0.46931 -2.19141,-2.30405 z m 15.07239,-3.90298 c 1.68941,-1.05548 3.43258,-2.8596 3.8737,-4.00914 1.08903,-2.83797 -2.33269,-8.14116 -7.26976,-11.26708 -3.7306,-2.36205 -4.24134,-2.39791 -6.20377,-0.43548 -2.1538,2.1538 -3.14832,16.49375 -1.27388,18.36818 1.16033,1.16034 7.07884,-0.28557 10.87371,-2.65648 z m 144.92834,5.04832 c -5.72246,-2.4977 -7.90556,-6.64534 -8.37414,-15.90994 -0.34734,-6.86695 0.13213,-9.96892 2.09742,-13.56873 2.69916,-4.94413 9.91659,-10.66667 13.4531,-10.66667 1.16344,0 0.0247,1.11246 -2.53051,2.47214 -9.57809,5.09664 -13.66297,19.89664 -8.03787,29.12208 5.50367,9.02629 12.73448,10.42245 21.83755,4.21652 l 4.22112,-2.87772 -3.54795,3.71781 c -2.72577,2.85626 -5.04313,3.82679 -10,4.18812 -3.54862,0.25868 -7.65205,-0.0534 -9.11872,-0.69361 z m -198.81633,-1.06788 c -5.28887,-1.02933 -10.17481,-7.71386 -10.86144,-14.85968 -1.32301,-13.76893 5.44652,-22.88445 16.99488,-22.88445 5.52748,0 6.92615,0.57081 9.81696,4.00634 6.7572,8.03048 5.7644,23.42342 -1.92821,29.89633 -2.24242,1.88687 -4.88202,3.43067 -5.86578,3.43067 -0.98376,0 -2.58772,0.21575 -3.56436,0.47945 -0.97665,0.2637 -3.04306,0.2328 -4.59205,-0.0687 z m 13.09947,-5.34256 c 5.71745,-5.15201 6.24628,-19.49299 0.96633,-26.20535 -3.47781,-4.42132 -9.28757,-5.60115 -14.44596,-2.93365 -4.68016,2.42021 -6.19484,4.80376 -7.511,11.8195 -2.69441,14.36244 11.38252,25.9774 20.99063,17.3195 z m 73.6534,4.35841 c -6.24291,-2.66962 -9.19267,-8.15178 -9.10564,-16.92295 0.0853,-8.60025 3.69224,-15.76566 9.19909,-18.27475 4.29403,-1.95649 11.96299,-2.01665 15.50388,-0.12162 6.08869,3.25857 8.48295,18.57288 4.28635,27.41658 -3.40087,7.16679 -12.83568,10.91665 -19.88368,7.90275 z m 11.23834,-2.23786 c 5.38983,-1.87891 8.15846,-7.21581 8.15846,-15.7265 0,-8.31168 -2.11436,-13.10819 -6.86004,-15.56228 -5.41306,-2.7992 -8.59943,-2.34537 -13.35284,1.9018 -3.70328,3.30888 -4.3206,4.82151 -4.76123,11.66666 -0.56649,8.80034 2.48573,15.6165 7.98253,17.82644 3.9689,1.59566 3.95078,1.59587 8.83312,-0.10612 z m 114.15846,-34.67917 -4,-2.49557 4.25464,-0.007 c 4.36526,-0.007 6.94376,2.07056 4.89585,3.94509 -0.63277,0.57924 -2.95049,-0.0699 -5.15049,-1.44245 z"
         id="path689"
         sodipodi:nodetypes="ssscsssscscsssssssssssssssssssssscssssssssssssssssssssscssssssssssssssssscsssssscsscsssssssssssssssssssssssssssscccssc" />
    </g>
    <g
       id="g1217"
       transform="matrix(0.05963087,0,0,0.05963087,-93.10159,20.372088)"
       style="fill:#ffffff;fill-opacity:1;stroke:#fff8f8;stroke-width:14.1032;stroke-dasharray:none;stroke-opacity:1">
      <path
         style="fill:#ffffff;fill-opacity:1;stroke:#fff8f8;stroke-width:0.841337;stroke-dasharray:none;stroke-opacity:1"
         d="m 755.09501,433.95297 c -1.21115,-1.30249 -2.20713,-4.85084 -2.20713,-7.8633 v -2.68208 l -1.15065,1.22005 c -1.90339,2.01818 -4.59156,2.35853 -5.9194,0.74946 -0.4754,-0.57609 -0.45588,-0.59235 0.25589,-0.21314 2.90215,1.5462 6.81416,-1.56341 6.81416,-5.41648 0,-2.411 -1.94558,-4.75632 -3.94565,-4.75632 -2.63324,0 -4.07134,1.76042 -5.23797,6.41192 -0.86268,3.43959 -1.48509,4.31006 -3.51714,4.91888 -2.60963,0.78187 -5.34073,-0.58125 -6.67121,-3.32966 -1.90065,-3.92621 0.37915,-8.70669 4.15219,-8.70669 1.55387,0 3.22534,0.60827 3.22534,1.17375 0,0.19522 0.073,0.28199 0.16213,0.19282 0.0892,-0.0892 -0.14895,-1.16165 -0.52916,-2.38328 -0.7055,-2.26675 -0.91408,-5.84698 -0.38889,-6.675 0.17231,-0.27166 0.28655,0.37783 0.27922,1.5875 -0.007,1.12599 0.42576,3.84905 0.96129,6.05123 0.96901,3.98474 1.06086,5.25567 0.2359,3.26404 -0.25529,-0.61633 -0.9467,-1.28875 -1.68573,-1.63945 -1.06451,-0.50513 -1.46755,-0.53025 -2.68006,-0.16697 -1.60044,0.4795 -3.21652,2.00877 -3.55719,3.36611 -0.3237,1.28972 0.37837,3.54949 1.48717,4.78679 1.79448,2.00245 5.18984,1.995 6.88123,-0.0151 0.48568,-0.57719 1.20104,-2.29617 1.64732,-3.95843 0.43386,-1.616 1.04296,-3.37218 1.35355,-3.90262 1.21275,-2.07116 4.23291,-2.49171 6.28755,-0.87553 1.60395,1.26166 2.22926,3.20766 2.23792,6.9645 0.0113,4.89863 0.61378,9.03874 1.60152,11.0053 0.46561,0.927 0.80141,1.68545 0.74622,1.68545 -0.0552,0 -0.43247,-0.35719 -0.83842,-0.79375 z m 79.19635,-7.3484 c -0.84706,-0.49337 -0.78133,-1.12966 0.0882,-0.85368 0.38805,0.12316 1.02305,0.12316 1.41111,0 1.0539,-0.3345 0.89547,-1.82694 -0.54071,-5.0934 -1.22044,-2.77578 -1.23418,-2.85836 -0.66301,-3.98584 0.93826,-1.85213 1.57508,-2.38604 2.84589,-2.38604 0.64903,0 1.18005,0.15875 1.18005,0.35278 0,0.19402 -0.36155,0.35277 -0.80345,0.35277 -1.24921,0 -2.37177,0.9703 -2.36993,2.04848 10e-4,0.52257 0.48631,2.19617 1.07869,3.71911 1.16976,3.00728 1.15841,4.17303 -0.0533,5.47363 -0.77386,0.83064 -1.24727,0.9117 -2.17356,0.37219 z m -26.38477,-0.61821 c -0.76072,-0.61599 -0.79495,-0.85619 -0.72612,-5.09519 l 0.0722,-4.44872 -1.66663,-0.10828 c -0.93543,-0.0608 -1.73033,-0.30175 -1.81181,-0.54926 -0.11085,-0.33672 0.87925,-0.44097 4.18812,-0.44097 2.69748,0 4.20677,0.12477 3.99815,0.33051 -0.18433,0.18178 -1.04952,0.38021 -1.92264,0.44097 l -1.5875,0.11047 -0.27219,3.35138 c -0.36038,4.43736 -0.15117,5.5724 1.08139,5.86677 1.37239,0.32777 1.62325,0.53083 1.08054,0.87471 -0.75524,0.47854 -1.56942,0.36734 -2.43354,-0.33239 z m 8.37382,0.29369 c -0.11252,-0.29104 -0.25555,-2.86816 -0.31784,-5.72693 -0.11047,-5.07067 -0.0236,-5.56196 0.98334,-5.56196 0.0811,0 0.13171,2.26219 0.11237,5.02709 -0.0344,4.91557 -0.34174,7.3898 -0.77787,6.2618 z m -57.84315,-0.21266 c -0.11696,-0.11696 -0.064,-0.60355 0.11759,-1.0813 0.44974,-1.18291 0.41923,-7.7584 -0.04,-8.61644 -0.32495,-0.60717 -0.18471,-0.776 1.14653,-1.38017 0.83422,-0.37861 1.86243,-0.69186 2.28491,-0.69612 0.87868,-0.009 2.23046,1.52251 2.23046,2.52679 0,1.19678 -0.9949,2.64525 -2.14379,3.12114 -0.8946,0.37055 -1.02133,0.53953 -0.63257,0.84344 1.56187,1.22094 4.5746,4.80158 4.34821,5.16787 -0.17041,0.27573 -1.13759,-0.52001 -2.81657,-2.31731 -1.47585,-1.57985 -2.72286,-2.63476 -2.94921,-2.49486 -0.22677,0.14015 -0.39218,1.27514 -0.39218,2.691 0,1.80533 -0.12357,2.44862 -0.47037,2.44862 -0.2587,0 -0.56607,-0.0957 -0.68303,-0.21266 z m 3.48174,-6.984 c 1.35839,-1.35839 1.49579,-2.23698 0.53533,-3.4231 -0.57493,-0.71 -0.7822,-0.76634 -1.5434,-0.41952 -0.72913,0.33222 -0.92114,0.73563 -1.12439,2.36242 -0.37827,3.02757 0.19037,3.42228 2.13246,1.4802 z m 20.23799,6.51251 c 0.58159,-1.08672 0.63617,-8.25916 0.0681,-8.94658 -0.41113,-0.49749 -0.31943,-0.66515 0.70556,-1.29005 3.19487,-1.94782 6.50861,0.56474 3.91572,2.96901 -0.53159,0.49292 -1.09,0.89622 -1.24091,0.89622 -0.15092,0 0.44277,0.68716 1.31931,1.52702 0.87653,0.83987 1.59369,1.69159 1.59369,1.89271 0,1.41918 -3.3678,3.61336 -5.56866,3.62808 -1.03839,0.007 -1.12085,-0.0634 -0.79279,-0.67641 z m 3.86678,-0.8903 c 0.54893,-0.28387 1.10028,-0.78248 1.2252,-1.10804 0.43174,-1.12508 -1.98585,-3.63014 -3.09326,-3.20519 -0.56019,0.21497 -1.0823,3.08483 -0.75108,4.12841 0.26373,0.83094 1.23688,0.89961 2.61914,0.18482 z m -0.27547,-6.24241 c 1.23103,-1.31783 1.20232,-2.35816 -0.085,-3.07824 -1.51059,-0.845 -2.0838,-0.34177 -2.0838,1.8294 0,2.74901 0.49898,3.03634 2.16875,1.24884 z m 38.09854,6.92337 c -2.62638,-2.20995 -2.19196,-6.87862 0.8564,-9.20372 2.02856,-1.54725 6.67425,-1.57628 5.13002,-0.032 -0.28827,0.28828 -0.50508,0.28011 -0.81593,-0.0307 -0.23283,-0.23283 -0.88302,-0.42333 -1.44487,-0.42333 -3.95939,0 -5.96047,6.2917 -2.91196,9.15562 1.09201,1.0259 2.95554,1.03527 4.59325,0.0231 0.68489,-0.42329 1.24525,-0.59558 1.24525,-0.38287 0,0.75874 -2.26434,1.78481 -3.94168,1.78615 -1.25078,9.9e-4 -1.90488,-0.2143 -2.71048,-0.89217 z m -52.69384,-0.009 c -1.718,-0.93233 -2.54129,-3.29654 -2.01024,-5.77276 0.43639,-2.03484 1.64391,-3.39326 3.5145,-3.9537 2.79221,-0.83657 4.92507,1.24801 4.92507,4.8136 0,3.93311 -3.41963,6.54617 -6.42933,4.91286 z m 3.76769,-0.72756 c 1.48532,-0.56997 2.15122,-4.75357 1.08486,-6.81569 -0.91703,-1.77335 -3.35214,-2.06256 -4.75884,-0.5652 -1.65037,1.75673 -1.51152,5.51505 0.25508,6.90466 0.87971,0.69198 2.33017,0.89402 3.4189,0.47623 z m 19.95834,0.82616 c -0.47925,-0.2425 -1.24868,-0.99422 -1.70984,-1.67049 -0.71646,-1.05062 -0.81256,-1.52665 -0.66027,-3.27058 0.21497,-2.4618 1.39891,-4.23008 3.23879,-4.83729 2.55005,-0.84159 4.45204,0.37905 5.10069,3.27346 0.99347,4.43306 -2.51284,8.25393 -5.96937,6.5049 z m 4.24945,-1.51739 c 0.71966,-0.76604 0.85524,-1.26528 0.85524,-3.14913 0,-3.53905 -1.80713,-5.27498 -4.36968,-4.1975 -1.78346,0.74989 -2.6778,3.6655 -1.81802,5.92689 0.92513,2.43328 3.68899,3.16914 5.33246,1.41974 z"
         id="path1289"
         inkscape:connector-curvature="0"
         clip-path="url(#clipPath1293)"
         transform="matrix(16.762906,0,0,16.762906,-11373.43,-6917.551)"
         inkscape:export-xdpi="240"
         inkscape:export-ydpi="240" />
      <path
         style="fill:#ffffff;fill-opacity:1;stroke:#fff8f8;stroke-width:14.1032;stroke-dasharray:none;stroke-opacity:1"
         d="m 1042.2102,44.128717 8.2345,7.882761"
         id="path275" />
    </g>
  </g>
</svg>
