<?xml version="1.0" encoding="UTF-8" standalone="no"?>
<svg
   viewBox="0 0 23 23"
   version="1.1"
   id="svg14319"
   sodipodi:docname="multiplatform_logo.svg"
   xml:space="preserve"
   inkscape:version="1.2.1 (9c6d41e410, 2022-07-14)"
   xmlns:inkscape="http://www.inkscape.org/namespaces/inkscape"
   xmlns:sodipodi="http://sodipodi.sourceforge.net/DTD/sodipodi-0.dtd"
   xmlns="http://www.w3.org/2000/svg"
   xmlns:svg="http://www.w3.org/2000/svg"><defs
     id="defs14323"><style
       id="style14372">.cls-1{fill:#e9500e;}</style></defs><sodipodi:namedview
     id="namedview14321"
     pagecolor="#ffffff"
     bordercolor="#000000"
     borderopacity="0.25"
     inkscape:showpageshadow="2"
     inkscape:pageopacity="0.0"
     inkscape:pagecheckerboard="0"
     inkscape:deskcolor="#d1d1d1"
     showgrid="false"
     inkscape:zoom="22.326087"
     inkscape:cx="3.4264849"
     inkscape:cy="7.211295"
     inkscape:window-width="3360"
     inkscape:window-height="1765"
     inkscape:window-x="-12"
     inkscape:window-y="-12"
     inkscape:window-maximized="1"
     inkscape:current-layer="svg14319" /><path
     fill="#f3f3f3"
     d="M0 0h23v23H0z"
     id="path14309" /><path
     fill="#f35325"
     d="M1 1h10v10H1z"
     id="path14311" /><path
     fill="#81bc06"
     d="M12 1h10v10H12z"
     id="path14313" /><path
     fill="#05a6f0"
     d="M1 12h10v10H1z"
     id="path14315" /><path
     fill="#ffba08"
     d="M12 12h10v10H12z"
     id="path14317" /><g
     id="g14398"
     transform="matrix(0.03306688,0,0,0.03306688,-39.808659,-0.82542664)"><circle
       class="cls-1"
       cx="109.02696"
       cy="348.09412"
       r="109.02696"
       id="circle14376" /><circle
       class="cls-1"
       cx="563.08368"
       cy="109.02698"
       r="109.02698"
       id="circle14378" /><path
       class="cls-1"
       d="m 492.48194,1336.6658 a 265.52505,265.52505 0 0 1 -181.0712,-138.0982 156.94784,156.94784 0 0 1 -93.21911,11.4583 354.93524,354.93524 0 0 0 255.53723,214.1645 359.20777,359.20777 0 0 0 77.41949,7.967 156.00313,156.00313 0 0 1 -31.92236,-91.1546 c -8.97977,-0.9975 -17.94864,-2.4548 -26.74405,-4.337 z"
       transform="translate(-137.56155,-707.97998)"
       id="path14380" /><circle
       class="cls-1"
       cx="538.52045"
       cy="629.28723"
       r="109.02698"
       id="circle14382" /><path
       class="cls-1"
       d="m 827.798,1297.221 a 356.70056,356.70056 0 0 0 17.87483,-418.519 157.14441,157.14441 0 0 1 -61.30975,71.8031 267.293,267.293 0 0 1 -8.73688,265.4884 156.34677,156.34677 0 0 1 52.1718,81.2275 z"
       transform="translate(-137.56155,-707.97998)"
       id="path14384" /><path
       class="cls-1"
       d="m 238.17644,899.71906 q 4.1505,-0.22779 8.30533,-0.22553 a 157.34626,157.34626 0 0 1 82.68239,23.54547 265.90653,265.90653 0 0 1 214.10822,-114.50934 158.0877,158.0877 0 0 1 33.076,-88.42022 C 439.24549,709.25177 306.02421,780.001 238.17644,899.71906 Z"
       transform="translate(-137.56155,-707.97998)"
       id="path14386" /></g></svg>
