<?xml version="1.0" encoding="UTF-8" standalone="no"?>
<!-- Generator: Adobe Illustrator 25.0.0, SVG Export Plug-In . SVG Version: 6.00 Build 0)  -->

<svg
   version="1.1"
   id="Layer_1"
   x="0px"
   y="0px"
   viewBox="0 0 334.6 60"
   xml:space="preserve"
   sodipodi:docname="semantic_scholar2.svg"
   width="334.60001"
   height="60"
   inkscape:version="1.2.1 (9c6d41e410, 2022-07-14)"
   xmlns:inkscape="http://www.inkscape.org/namespaces/inkscape"
   xmlns:sodipodi="http://sodipodi.sourceforge.net/DTD/sodipodi-0.dtd"
   xmlns="http://www.w3.org/2000/svg"
   xmlns:svg="http://www.w3.org/2000/svg"><defs
   id="defs51" /><sodipodi:namedview
   id="namedview49"
   pagecolor="#ffffff"
   bordercolor="#000000"
   borderopacity="0.25"
   inkscape:showpageshadow="2"
   inkscape:pageopacity="0.0"
   inkscape:pagecheckerboard="0"
   inkscape:deskcolor="#d1d1d1"
   showgrid="false"
   inkscape:zoom="2.5570807"
   inkscape:cx="214.89349"
   inkscape:cy="43.213342"
   inkscape:window-width="1920"
   inkscape:window-height="1010"
   inkscape:window-x="1073"
   inkscape:window-y="387"
   inkscape:window-maximized="1"
   inkscape:current-layer="Layer_1" />
<style
   type="text/css"
   id="style2">
	.st0{fill:#12233B;}
	.st1{fill-rule:evenodd;clip-rule:evenodd;fill:#F3D25E;}
	.st2{fill:#638BC4;}
	.st3{fill:#305CA5;}
	.st4{fill:#273D72;}
</style>
<g
   id="Logo__x2B__Wordmark">
	<g
   id="g34">
		<path
   class="st0"
   d="m 107.6,24.3 c -0.1,0.1 -0.2,0.2 -0.3,0.3 -0.1,0.1 -0.2,0.1 -0.3,0.1 -0.1,0 -0.3,-0.1 -0.5,-0.2 -0.2,-0.1 -0.4,-0.3 -0.7,-0.4 -0.3,-0.2 -0.6,-0.3 -1,-0.4 -0.4,-0.1 -0.9,-0.2 -1.4,-0.2 -0.5,0 -1,0.1 -1.3,0.2 -0.4,0.1 -0.7,0.3 -1,0.5 -0.3,0.2 -0.5,0.5 -0.6,0.8 -0.1,0.3 -0.2,0.6 -0.2,1 0,0.5 0.1,0.9 0.4,1.2 0.2,0.3 0.5,0.6 0.9,0.8 0.4,0.2 0.8,0.4 1.3,0.6 0.5,0.2 1,0.3 1.5,0.5 0.5,0.2 1,0.4 1.5,0.6 0.5,0.2 0.9,0.5 1.3,0.9 0.4,0.3 0.7,0.8 0.9,1.3 0.2,0.5 0.4,1.1 0.4,1.8 0,0.8 -0.1,1.5 -0.4,2.2 -0.3,0.7 -0.6,1.3 -1.1,1.8 -0.5,0.5 -1.1,0.9 -1.8,1.2 -0.7,0.3 -1.6,0.4 -2.5,0.4 -0.6,0 -1.1,-0.1 -1.6,-0.2 -0.5,-0.1 -1,-0.3 -1.5,-0.5 -0.5,-0.2 -0.9,-0.4 -1.3,-0.7 -0.4,-0.3 -0.8,-0.6 -1.1,-0.9 l 0.7,-1.2 c 0.1,-0.1 0.2,-0.2 0.3,-0.2 0.1,0 0.2,-0.1 0.3,-0.1 0.2,0 0.4,0.1 0.6,0.3 0.2,0.2 0.5,0.4 0.8,0.6 0.3,0.2 0.7,0.4 1.2,0.6 0.5,0.2 1,0.3 1.7,0.3 0.5,0 1,-0.1 1.4,-0.2 0.4,-0.1 0.8,-0.3 1.1,-0.6 0.3,-0.3 0.5,-0.6 0.7,-0.9 0.2,-0.4 0.2,-0.8 0.2,-1.2 0,-0.5 -0.1,-0.9 -0.4,-1.2 -0.2,-0.3 -0.5,-0.6 -0.9,-0.8 -0.4,-0.2 -0.8,-0.4 -1.3,-0.6 -0.5,-0.2 -1,-0.3 -1.5,-0.5 -0.5,-0.2 -1,-0.4 -1.5,-0.6 -0.5,-0.2 -0.9,-0.5 -1.3,-0.9 C 98.9,29.4 98.6,29 98.4,28.5 98.2,28 98,27.3 98,26.5 c 0,-0.6 0.1,-1.2 0.4,-1.8 0.2,-0.6 0.6,-1.1 1.1,-1.5 0.5,-0.4 1,-0.8 1.7,-1.1 0.7,-0.3 1.5,-0.4 2.3,-0.4 1,0 1.9,0.2 2.7,0.5 0.8,0.3 1.5,0.8 2.1,1.3 z"
   id="path4" />
		<path
   class="st0"
   d="m 122.2,36.7 v 2.1 H 111.4 V 21.4 h 10.8 v 2.1 H 114 V 29 h 6.6 v 2 H 114 v 5.7 z"
   id="path6" />
		<path
   class="st0"
   d="m 142.9,21.4 v 17.4 h -2.2 V 26.5 c 0,-0.2 0,-0.4 0,-0.6 0,-0.2 0,-0.4 0,-0.6 l -5.8,10.6 c -0.2,0.4 -0.5,0.6 -0.9,0.6 h -0.4 c -0.4,0 -0.7,-0.2 -0.9,-0.6 l -5.9,-10.6 c 0,0.5 0.1,0.9 0.1,1.3 V 39 h -2.3 V 21.4 h 1.9 c 0.2,0 0.4,0 0.5,0.1 0.1,0 0.2,0.2 0.4,0.4 l 5.8,10.4 c 0.1,0.2 0.2,0.4 0.3,0.7 0.1,0.2 0.2,0.5 0.3,0.7 0.2,-0.5 0.4,-0.9 0.6,-1.4 l 5.7,-10.4 c 0.1,-0.2 0.2,-0.3 0.3,-0.4 0.1,0 0.3,-0.1 0.5,-0.1 z"
   id="path8" />
		<path
   class="st0"
   d="m 161.2,38.8 h -2 c -0.2,0 -0.4,-0.1 -0.6,-0.2 -0.1,-0.1 -0.2,-0.3 -0.3,-0.4 l -1.5,-4 h -7.7 l -1.5,4 c -0.1,0.2 -0.2,0.3 -0.3,0.4 -0.2,0.1 -0.3,0.2 -0.6,0.2 h -2 l 6.9,-17.4 h 2.6 z m -5.1,-6.5 -2.6,-6.7 c -0.2,-0.5 -0.4,-1 -0.6,-1.7 -0.1,0.3 -0.2,0.7 -0.3,1 -0.1,0.3 -0.2,0.6 -0.3,0.8 l -2.6,6.7 h 6.4 z"
   id="path10" />
		<path
   class="st0"
   d="M 177.3,21.4 V 38.8 H 176 c -0.2,0 -0.4,0 -0.5,-0.1 -0.1,-0.1 -0.3,-0.2 -0.4,-0.4 l -9.8,-12.7 c 0,0.2 0,0.4 0,0.6 0,0.2 0,0.4 0,0.6 V 38.7 H 163 V 21.4 h 1.3 c 0.2,0 0.4,0 0.5,0.1 0.1,0.1 0.2,0.2 0.4,0.4 l 9.8,12.7 c 0,-0.2 0,-0.5 -0.1,-0.7 0,-0.2 0,-0.4 0,-0.6 V 21.4 Z"
   id="path12" />
		<path
   class="st0"
   d="m 193,23.6 h -5.5 v 15.2 h -2.6 V 23.6 h -5.5 V 21.4 H 193 Z"
   id="path14" />
		<path
   class="st0"
   d="M 197.6,38.8 H 195 V 21.4 h 2.6 z"
   id="path16" />
		<path
   class="st0"
   d="m 213.7,35.1 c 0.1,0 0.3,0.1 0.4,0.2 l 1,1.1 c -0.7,0.8 -1.6,1.5 -2.6,1.9 -1,0.5 -2.2,0.7 -3.7,0.7 -1.3,0 -2.4,-0.2 -3.4,-0.7 -1,-0.5 -1.9,-1 -2.6,-1.8 -0.7,-0.8 -1.3,-1.7 -1.7,-2.8 -0.4,-1.1 -0.6,-2.3 -0.6,-3.6 0,-1.3 0.2,-2.5 0.6,-3.6 0.4,-1.1 1,-2 1.7,-2.8 0.7,-0.8 1.6,-1.4 2.7,-1.8 1,-0.4 2.2,-0.7 3.5,-0.7 1.2,0 2.3,0.2 3.3,0.6 1,0.4 1.8,0.9 2.5,1.6 l -0.8,1.2 c -0.1,0.1 -0.1,0.2 -0.2,0.2 -0.1,0.1 -0.2,0.1 -0.3,0.1 -0.2,0 -0.3,-0.1 -0.5,-0.2 -0.2,-0.2 -0.5,-0.3 -0.8,-0.5 -0.3,-0.2 -0.7,-0.4 -1.2,-0.5 -0.5,-0.2 -1.1,-0.2 -1.8,-0.2 -0.9,0 -1.7,0.2 -2.4,0.5 -0.7,0.3 -1.3,0.7 -1.9,1.3 -0.5,0.6 -0.9,1.3 -1.2,2.1 -0.3,0.8 -0.4,1.8 -0.4,2.8 0,1.1 0.1,2 0.4,2.8 0.3,0.8 0.7,1.5 1.2,2.1 0.5,0.6 1.1,1 1.9,1.3 0.7,0.3 1.5,0.4 2.3,0.4 0.5,0 0.9,0 1.3,-0.1 0.4,-0.1 0.8,-0.2 1.1,-0.3 0.3,-0.1 0.7,-0.3 0.9,-0.5 0.3,-0.2 0.6,-0.4 0.9,-0.7 0.1,-0.1 0.1,-0.1 0.2,-0.1 0.1,0 0.1,0 0.2,0 z"
   id="path18" />
		<path
   class="st0"
   d="m 233.2,24.8 c -0.1,0.2 -0.2,0.3 -0.4,0.4 -0.1,0.1 -0.3,0.1 -0.5,0.1 -0.2,0 -0.4,-0.1 -0.6,-0.2 -0.2,-0.1 -0.5,-0.2 -0.7,-0.4 -0.3,-0.1 -0.6,-0.3 -0.9,-0.4 -0.3,-0.1 -0.7,-0.2 -1.2,-0.2 -0.8,0 -1.3,0.2 -1.7,0.5 -0.4,0.3 -0.6,0.8 -0.6,1.3 0,0.4 0.1,0.6 0.3,0.9 0.2,0.2 0.5,0.4 0.9,0.6 0.4,0.2 0.8,0.3 1.3,0.5 0.5,0.1 1,0.3 1.4,0.5 0.5,0.2 1,0.4 1.4,0.6 0.5,0.2 0.9,0.5 1.3,0.9 0.4,0.4 0.7,0.8 0.9,1.3 0.2,0.5 0.3,1.1 0.3,1.9 0,0.8 -0.1,1.6 -0.4,2.3 -0.3,0.7 -0.7,1.3 -1.2,1.9 -0.5,0.5 -1.2,0.9 -2,1.2 -0.8,0.3 -1.7,0.5 -2.7,0.5 -0.5,0 -1.1,-0.1 -1.7,-0.2 -0.6,-0.1 -1.1,-0.3 -1.6,-0.5 -0.5,-0.2 -1,-0.4 -1.5,-0.7 -0.5,-0.3 -0.9,-0.6 -1.2,-0.9 l 1.2,-1.9 c 0.1,-0.1 0.2,-0.3 0.4,-0.3 0.2,-0.1 0.3,-0.1 0.5,-0.1 0.2,0 0.5,0.1 0.7,0.2 0.2,0.2 0.5,0.3 0.8,0.5 0.3,0.2 0.7,0.4 1.1,0.5 0.4,0.2 0.9,0.2 1.4,0.2 0.7,0 1.3,-0.2 1.7,-0.5 0.4,-0.3 0.6,-0.8 0.6,-1.6 0,-0.4 -0.1,-0.7 -0.3,-1 -0.2,-0.3 -0.5,-0.5 -0.9,-0.6 -0.4,-0.2 -0.8,-0.3 -1.3,-0.4 -0.5,-0.1 -0.9,-0.3 -1.4,-0.4 -0.5,-0.2 -1,-0.4 -1.4,-0.6 -0.5,-0.2 -0.9,-0.5 -1.3,-0.9 -0.4,-0.4 -0.7,-0.8 -0.9,-1.4 -0.2,-0.6 -0.3,-1.3 -0.3,-2.1 0,-0.7 0.1,-1.3 0.4,-1.9 0.3,-0.6 0.7,-1.2 1.2,-1.7 0.5,-0.5 1.1,-0.9 1.9,-1.2 0.7,-0.3 1.6,-0.4 2.6,-0.4 0.5,0 1.1,0 1.6,0.1 0.5,0.1 1,0.2 1.5,0.4 0.5,0.2 0.9,0.4 1.3,0.6 0.4,0.2 0.8,0.5 1.1,0.8 z"
   id="path20" />
		<path
   class="st0"
   d="m 248.4,34.2 c 0.1,0 0.2,0 0.3,0.1 0.1,0 0.2,0.1 0.3,0.2 l 1.6,1.7 c -0.7,0.9 -1.6,1.6 -2.7,2.1 -1.1,0.5 -2.3,0.7 -3.8,0.7 -1.3,0 -2.5,-0.2 -3.6,-0.7 -1.1,-0.5 -2,-1.1 -2.7,-1.9 -0.7,-0.8 -1.3,-1.8 -1.7,-2.9 -0.4,-1.1 -0.6,-2.3 -0.6,-3.6 0,-1.3 0.2,-2.5 0.6,-3.6 0.4,-1.1 1,-2 1.8,-2.8 0.8,-0.8 1.7,-1.4 2.8,-1.9 1.1,-0.4 2.3,-0.7 3.6,-0.7 0.7,0 1.3,0.1 1.9,0.2 0.6,0.1 1.1,0.3 1.6,0.5 0.5,0.2 1,0.5 1.4,0.7 0.4,0.3 0.8,0.6 1.1,0.9 l -1.4,1.8 c -0.1,0.1 -0.2,0.2 -0.3,0.3 -0.1,0.1 -0.3,0.1 -0.5,0.1 -0.1,0 -0.3,0 -0.4,-0.1 -0.1,-0.1 -0.3,-0.1 -0.4,-0.2 -0.1,-0.1 -0.3,-0.2 -0.5,-0.3 -0.2,-0.1 -0.4,-0.2 -0.6,-0.3 -0.2,-0.1 -0.5,-0.2 -0.8,-0.2 -0.3,0 -0.7,-0.1 -1.1,-0.1 -0.7,0 -1.3,0.1 -1.9,0.4 -0.6,0.2 -1,0.6 -1.5,1.1 -0.4,0.5 -0.7,1.1 -0.9,1.8 -0.2,0.7 -0.3,1.5 -0.3,2.4 0,0.9 0.1,1.7 0.4,2.4 0.2,0.7 0.6,1.3 1,1.8 0.4,0.5 0.9,0.8 1.5,1.1 0.6,0.2 1.2,0.4 1.8,0.4 0.4,0 0.7,0 1,-0.1 0.3,0 0.6,-0.1 0.9,-0.2 0.3,-0.1 0.5,-0.2 0.7,-0.3 0.2,-0.1 0.5,-0.3 0.7,-0.5 0.1,-0.1 0.2,-0.1 0.3,-0.2 0.2,0 0.3,-0.1 0.4,-0.1 z"
   id="path22" />
		<path
   class="st0"
   d="m 267.4,21.2 v 17.6 h -4.1 v -7.4 h -7.2 v 7.4 H 252 V 21.2 h 4.1 v 7.4 h 7.2 v -7.4 z"
   id="path24" />
		<path
   class="st0"
   d="m 287.9,30 c 0,1.3 -0.2,2.5 -0.7,3.6 -0.4,1.1 -1.1,2 -1.9,2.9 -0.8,0.8 -1.8,1.4 -2.9,1.9 -1.1,0.5 -2.4,0.7 -3.7,0.7 -1.4,0 -2.6,-0.2 -3.7,-0.7 -1.1,-0.5 -2.1,-1.1 -2.9,-1.9 -0.8,-0.8 -1.4,-1.8 -1.9,-2.9 -0.4,-1.1 -0.7,-2.3 -0.7,-3.6 0,-1.3 0.2,-2.5 0.7,-3.6 0.5,-1.1 1.1,-2 1.9,-2.9 0.8,-0.8 1.8,-1.4 2.9,-1.9 1.1,-0.5 2.4,-0.7 3.7,-0.7 1.4,0 2.6,0.2 3.7,0.7 1.1,0.5 2.1,1.1 2.9,1.9 0.8,0.8 1.4,1.8 1.9,2.9 0.4,1.1 0.7,2.3 0.7,3.6 z m -4.2,0 c 0,-0.9 -0.1,-1.7 -0.3,-2.4 -0.2,-0.7 -0.5,-1.3 -1,-1.8 -0.5,-0.5 -0.9,-0.9 -1.6,-1.1 -0.6,-0.3 -1.3,-0.4 -2.1,-0.4 -0.8,0 -1.5,0.1 -2.1,0.4 -0.6,0.3 -1.1,0.6 -1.6,1.1 -0.4,0.5 -0.7,1.1 -1,1.8 -0.2,0.7 -0.3,1.5 -0.3,2.4 0,0.9 0.1,1.7 0.3,2.4 0.2,0.7 0.5,1.3 1,1.8 0.4,0.5 0.9,0.9 1.6,1.1 0.6,0.3 1.3,0.4 2.1,0.4 0.8,0 1.5,-0.1 2.1,-0.4 0.6,-0.3 1.1,-0.6 1.6,-1.1 0.5,-0.5 0.7,-1.1 1,-1.8 0.2,-0.7 0.3,-1.5 0.3,-2.4 z"
   id="path26" />
		<path
   class="st0"
   d="m 300.7,35.5 v 3.3 H 290.1 V 21.2 h 4.1 v 14.3 z"
   id="path28" />
		<path
   class="st0"
   d="m 319,38.8 h -3.2 c -0.4,0 -0.6,-0.1 -0.9,-0.2 -0.2,-0.2 -0.4,-0.4 -0.5,-0.6 l -1,-3.1 h -6.7 l -1,3.1 c -0.1,0.2 -0.2,0.4 -0.5,0.6 -0.2,0.2 -0.5,0.3 -0.9,0.3 h -3.2 l 6.8,-17.6 h 4.2 z m -6.5,-6.7 -1.6,-4.8 c -0.1,-0.3 -0.2,-0.7 -0.4,-1.1 -0.1,-0.4 -0.3,-0.9 -0.4,-1.3 -0.1,0.5 -0.2,0.9 -0.4,1.4 -0.1,0.4 -0.3,0.8 -0.4,1.1 l -1.6,4.8 h 4.8 z"
   id="path30" />
		<path
   class="st0"
   d="m 334.6,38.8 h -3.7 c -0.7,0 -1.2,-0.3 -1.5,-0.8 l -2.9,-5.1 c -0.1,-0.2 -0.3,-0.4 -0.5,-0.5 -0.2,-0.1 -0.4,-0.2 -0.7,-0.2 h -1 v 6.5 h -4.1 V 21.2 h 5.7 c 1.3,0 2.4,0.1 3.3,0.4 0.9,0.3 1.6,0.6 2.2,1.1 0.6,0.5 1,1 1.2,1.7 0.3,0.6 0.4,1.3 0.4,2.1 0,0.6 -0.1,1.1 -0.2,1.6 -0.2,0.5 -0.4,1 -0.7,1.4 -0.3,0.4 -0.7,0.8 -1.1,1.2 -0.4,0.3 -0.9,0.6 -1.5,0.8 0.3,0.1 0.5,0.3 0.7,0.5 0.2,0.2 0.4,0.4 0.6,0.7 z m -8.7,-9.3 c 0.6,0 1,-0.1 1.4,-0.2 0.4,-0.1 0.7,-0.3 1,-0.6 0.2,-0.2 0.4,-0.5 0.5,-0.9 0.1,-0.3 0.2,-0.7 0.2,-1.1 0,-0.8 -0.3,-1.4 -0.8,-1.8 -0.5,-0.4 -1.3,-0.7 -2.3,-0.7 h -1.6 v 5.2 h 1.6 z"
   id="path32" />
	</g>
	<g
   id="S2_Logo_1_">
		<g
   id="g38">
			<path
   class="st1"
   d="m 83.2,18.3 c -2.9,1.8 -5,2.9 -7.4,4.3 C 61.4,31.3 47.5,41 36.8,53.7 L 31.6,60 15.8,34.8 c 3.5,2.8 12.4,10.7 16,12.5 l 11.6,-8.8 c 8.1,-5.7 31,-18.1 39.8,-20.2 z"
   id="path36" />
		</g>
		<path
   class="st2"
   d="m 23.2,37.1 c 0.4,0.3 0.7,0.6 1.1,0.9 -3.1,-8.7 -8.6,-17.4 -16.4,-24.9 -2.6,0 -5.2,0 -7.9,0 10,7.2 17.8,15.6 23.2,24 z"
   id="path40" />
		<path
   class="st3"
   d="m 25.8,39.4 c 0.3,0.3 0.7,0.5 1,0.8 C 26.3,28.4 21.9,16.3 13.5,5.9 c -2.5,0 -5,0 -7.5,0 10.7,9.9 17.3,21.9 19.8,33.5 z"
   id="path42" />
		<path
   class="st4"
   d="m 27.9,41.1 c 1.2,1 2.4,1.9 3.4,2.6 C 33.9,31 31.7,17.3 24.8,5.4 36.5,5.2 48.2,5.1 59.8,4.9 c 2.6,5.8 4.1,12 4.5,18.4 1,-0.5 2,-1 3.1,-1.5 C 66.9,15.2 65.1,8.2 61.6,0 45.6,0 29.7,0 13.7,0 24.1,12.3 28.8,27.2 27.9,41.1 Z"
   id="path44" />
	</g>
</g>
</svg>
